FILE "G. K. Chesterton - The Man Who Was Thursday.m4b" M4B
TRACK 1 AUDIO
  TITLE "Preface"
  INDEX 01 0:0:00
TRACK 2 AUDIO
  TITLE "The Two Poets of Saffron Park"
  INDEX 01 04:19:19
TRACK 3 AUDIO
  TITLE "The Secret of Gabriel Syme"
  INDEX 01 29:46:08
TRACK 4 AUDIO
  TITLE "The Man Who Was Thursday"
  INDEX 01 49:46:41
TRACK 5 AUDIO
  TITLE "The Tale of Detective"
  INDEX 01 76:37:00
TRACK 6 AUDIO
  TITLE "The Fiest of Fear"
  INDEX 01 102:11:45
TRACK 7 AUDIO
  TITLE "The Exposure"
  INDEX 01 124:47:30
TRACK 8 AUDIO
  TITLE "The Anccountable Conduct of Professor de Worms"
  INDEX 01 146:49:15
TRACK 9 AUDIO
  TITLE "The Professor Explains"
  INDEX 01 170:03:11
TRACK 10 AUDIO
  TITLE "The Man in Spectacles"
  INDEX 01 202:12:48
TRACK 11 AUDIO
  TITLE "The Duel"
  INDEX 01 240:57:15
TRACK 12 AUDIO
  TITLE "The Criminals Chase the Police"
  INDEX 01 279:26:26
TRACK 13 AUDIO
  TITLE "The Earth in Anarchy"
  INDEX 01 299:57:00
TRACK 14 AUDIO
  TITLE "The Pursuit of the President"
  INDEX 01 339:25:71
TRACK 15 AUDIO
  TITLE "The Six Philosophers"
  INDEX 01 368:36:62
TRACK 16 AUDIO
  TITLE "The Accuser"
  INDEX 01 400:25:04
TRACK 17 AUDIO
  TITLE "Afterword"
  INDEX 01 424:29:53
